<?xml version="1.0" encoding="UTF-8"?>
<svg xmlns="http://www.w3.org/2000/svg" version="1.1" viewBox="0 0 600 200">
  <!-- Generator: Adobe Illustrator 29.5.1, SVG Export Plug-In . SVG Version: 2.1.0 Build 141)  -->
  <defs>
    <style>
      .st0, .st1 {
        fill: none;
        font-family: Gadugi, Gadugi;
        stroke-miterlimit: 10;
      }

      .st1, .st2 {
        font-size: 120px;
        stroke: #002c49;
        stroke-width: 2px;
      }

      .st3 {
        font-size: 153.53px;
        stroke: #000;
      }

      .st4 {
        fill: #002c49;
      }
    </style>
  </defs>
  <g id="Capa_2">
    <text class="st0" transform="translate(58.06 160.77) scale(.83 1)"><tspan class="st2" x="0" y="0">Vitac</tspan><tspan class="st3" x="260.74" y="0"> </tspan></text>
    <text class="st1" transform="translate(380.63 160.77) scale(.83 1)"><tspan x="0" y="0">nex</tspan></text>
  </g>
  <g id="Capa_5">
    <path class="st4" d="M320.47,165.19c-3.65-3.01-9-8.09-12.56-11.32-8.2-7.95-16.79-15.55-23.56-24.85-5.02-7.53-8.78-16.96-6.18-26.14,2.64-9.62,12.42-15.65,21.98-16.33,12.73-1.27,24.53,7.22,31.15,17.38,0,0-5.82,0-5.82,0,4.56-6.79,10.89-12.72,18.71-15.64,16.87-6.53,38.05,4.77,34.99,24.42-1.25,8.12-5.57,15.04-10.58,21.2,0,0-1.64.81-1.64.81l1.64-.81c-7.14,8.56-14.95,16.2-22.91,23.88-2.55,2.47-5.36,5.03-7.93,7.45,0,0,.06-.05.06-.05l-.07.06s.11-.16.14-.2c.85-1.08,2.4-2.89,3.29-3.97,5.43-6.52,12.26-14.47,17.51-21.08,2.27-2.85,4.54-5.69,6.62-8.61l1.64-.81-1.64.81c5.69-8.15,11.56-19.11,6.85-28.82-4.46-8.93-16.77-11.46-25.57-7.96-6.26,2.4-11.46,7.33-15.31,13.19l-2.9,4.41-2.92-4.41c-4.26-6.46-10.16-11.87-17.56-13.94-6.93-1.86-15.42-.32-20.48,4.77-5.42,5.22-5.47,13.87-2.67,20.69,2.75,7.78,8.21,14.13,13.5,20.39,7.21,8.6,14.82,17.06,22.21,25.47h0Z"/>
    <path class="st4" d="M321.08,166.1c-100.31,1.88-201.74,1.74-302.04-.46,100.31-1.9,201.74-1.73,302.04.46h0Z"/>
    <path class="st4" d="M575.11,166.23c-78.89,1.82-158.79,1.6-237.67-.7,78.89-1.83,158.79-1.58,237.67.7h0Z"/>
  </g>
</svg>